<svg width="133" height="117" viewBox="0 0 133 117" fill="none" xmlns="http://www.w3.org/2000/svg">
<g clip-path="url(#clip0_6_30)">
<path d="M5.51036 82.4849C7.51413 82.8359 8.01507 81.3149 7.7646 80.6129C7.38889 79.2089 7.38889 77.8049 7.26366 75.9329C7.13842 74.1779 7.01318 72.0719 5.76083 70.6679C5.13465 69.966 4.25801 69.4979 3.25612 69.4979C-1.37759 69.381 0.125237 76.2839 0.87665 78.6239C1.12712 79.5599 1.62806 80.4959 2.50471 81.1979C3.25612 81.8999 4.38324 82.2509 5.51036 82.4849ZM96.5565 3.50995C127.991 12.753 132.499 47.034 132.499 47.034C133.376 51.4799 133.25 65.6369 131.497 72.6569C130.245 77.4539 129.118 90.3239 106.701 106.704C102.317 109.863 97.3079 113.49 92.048 113.958C91.4218 114.075 90.7957 114.075 90.42 113.607C90.0443 113.139 91.0461 111.969 91.2966 111.852C104.947 104.247 123.858 91.4939 124.609 61.3079C124.609 61.3079 126.488 32.8769 107.702 19.539C101.691 15.21 92.9247 10.296 86.0367 8.54095C85.0348 8.30695 75.5169 6.31795 75.2665 7.83895C74.8908 9.94495 78.7731 10.062 80.6516 10.179C85.1601 10.296 90.7957 12.87 92.048 13.455C108.329 20.943 112.587 29.718 114.089 31.8239C120.351 41.1839 120.101 59.2019 120.226 61.7759C120.476 78.0389 111.334 89.1539 107.202 94.4189C100.188 103.311 84.5339 114.777 58.8606 116.883C52.8493 117.351 39.6996 117.234 26.6751 110.565C22.5424 108.459 14.2768 102.141 10.0188 94.7699C8.76648 92.6639 6.51224 87.1649 9.26742 86.5799C10.8955 86.2289 13.4002 91.0259 17.9087 95.5889C22.0414 99.6839 26.1742 103.545 32.3107 106.353C40.451 110.097 50.2194 112.203 54.3522 111.618C55.2288 111.501 55.354 110.448 54.4774 110.331C51.9727 109.746 46.9633 109.395 42.9557 107.991C36.5687 105.885 24.7966 98.9819 18.0339 90.7919C15.5292 87.7499 11.6469 80.7299 10.8955 75.5819C9.64313 66.5729 10.0188 53.7029 10.5198 51.2459C13.1497 36.7379 21.5405 28.3139 27.8023 23.049C34.064 17.901 45.5857 14.274 48.5913 12.87C49.0923 12.636 48.8418 12.051 48.4661 12.051C47.9652 11.934 47.2137 12.051 46.7128 12.168C46.3371 12.285 45.8362 12.402 45.3352 12.402C44.0829 12.636 6.88795 20.475 6.51224 62.5949C6.51224 66.5729 3.00565 64.3499 2.50471 62.0099C1.25236 55.5749 1.50283 49.7249 3.00565 43.6409C5.88607 32.409 13.4002 23.4 20.7891 17.433C31.8098 8.77495 46.9633 3.74395 59.6121 1.63795C70.2571 -0.117046 79.0235 -1.63805 96.5565 3.50995Z" fill="#DA1A32"/>
<path d="M113.463 104.715H115.843V105.183H114.966V107.523H114.34V105.183H113.463V104.715ZM116.344 104.715H117.22L118.097 106.938L118.848 104.715H119.725V107.523H119.099V105.183L118.222 107.523H117.721L116.845 105.183V107.523H116.218V104.715H116.344Z" fill="#DA1A32"/>
<path d="M97.4332 36.387C96.807 36.153 96.306 35.919 95.8051 35.685C94.177 35.1 90.1695 33.93 87.0386 32.994C85.2853 32.409 83.4068 31.941 83.0311 31.824C82.6554 31.356 81.904 28.197 81.5283 26.559C81.2778 25.74 81.1526 25.155 81.1526 24.804C80.9021 23.868 80.5264 23.283 79.5245 23.283H79.3993C79.0236 23.283 74.2646 24.219 66.5 25.74C61.2401 26.676 55.855 27.729 55.4793 27.846C55.1036 27.846 54.7279 28.08 51.3465 32.877C50.3446 34.281 49.0923 36.153 48.8418 36.27C48.7166 36.387 47.9652 36.621 47.2138 36.855C45.0848 37.674 40.952 39.195 37.5706 40.95C33.6883 42.822 26.4247 46.8 25.7985 47.736C25.548 48.087 25.548 48.438 25.7985 48.789C26.049 49.14 26.6752 49.374 27.3013 49.374C27.4266 49.374 27.5518 49.374 27.8023 49.374C28.5537 49.257 51.8475 45.981 65.1224 44.577C68.5038 44.226 72.6366 43.875 77.646 43.641C89.919 43.056 102.192 42.939 102.944 43.056C103.695 43.173 104.446 42.939 104.947 42.471C105.323 42.003 105.573 41.535 105.573 40.95C105.448 39.897 102.818 38.61 97.4332 36.387Z" fill="white"/>
<path d="M55.1036 58.6169C54.9783 57.5639 54.8531 56.9789 54.4774 56.7449C54.2269 56.6279 53.9764 56.6279 53.8512 56.6279C53.225 56.7449 53.0998 57.2129 52.9746 57.5639C52.9746 57.6809 52.8493 57.7979 52.5989 58.1489C48.3409 63.5309 47.8399 65.4029 47.5894 67.0409C47.339 68.4449 47.8399 69.9659 48.7166 70.6679C49.0923 71.0189 49.5932 71.1359 50.0941 71.0189C50.4699 70.9019 50.8456 70.7849 50.9708 70.5509C51.096 70.3169 51.096 70.0829 50.9708 69.7319C51.096 68.9129 51.8474 67.6259 52.5989 66.2219C53.726 63.8819 55.2288 60.9569 55.1036 58.6169Z" fill="white"/>
<path d="M54.6026 55.107C55.855 54.873 56.7317 53.703 57.2326 53.118C58.2345 51.831 59.4868 50.076 59.9878 49.257C60.113 49.023 60.3635 48.555 60.4887 48.438C60.6139 48.087 60.6139 47.853 60.4887 47.736C60.3635 47.502 59.9878 47.502 59.4868 47.619C58.1092 47.853 55.4793 49.14 53.8512 51.246C53.0998 52.182 52.7241 53.235 52.8494 54.054C52.9746 54.756 53.6008 55.224 54.6026 55.107Z" fill="white"/>
<path d="M78.8983 65.988C78.6479 65.988 78.3974 66.105 78.3974 66.105C77.3955 66.573 75.6422 66.807 74.7656 66.924C73.388 67.041 71.8851 66.924 70.3823 66.69C68.3785 66.456 65.9991 66.105 63.1187 66.456C62.6177 66.456 62.1168 66.573 61.6158 66.69C62.4925 65.871 64.9972 63.414 66.3748 62.01C67.3767 61.074 69.0047 59.202 69.5057 58.032C69.6309 57.564 69.8814 56.745 69.5057 56.16C69.2552 55.809 68.629 55.692 67.8776 55.692C67.7524 55.692 59.2364 56.511 59.2364 56.511C58.9859 56.511 58.6102 56.511 58.3597 56.511H58.2345C57.3578 56.511 56.7316 56.862 56.4812 57.447C56.3559 58.032 56.6064 58.617 57.2326 58.968C57.8588 59.319 58.7354 59.436 60.113 59.436C60.6139 59.436 61.1149 59.436 61.6158 59.319C62.743 59.202 63.7448 58.968 64.2458 58.851C62.9934 59.904 59.6121 62.946 57.4831 64.818C57.3578 64.935 57.2326 65.052 56.9821 65.169C55.855 66.105 54.6026 67.275 53.9765 68.445C53.4755 69.498 53.4755 70.317 54.1017 70.785C54.4774 71.136 54.8531 71.136 55.3541 71.136C55.7298 71.136 56.1055 71.019 56.7317 70.785C57.8588 70.434 59.4868 70.083 62.242 69.732C64.4962 69.498 67.1262 69.498 70.0066 69.498C71.0085 69.498 72.0104 69.498 73.0123 69.381C75.3917 69.147 77.3955 68.562 78.6478 67.626C79.0236 67.392 79.775 66.924 79.3993 66.222C79.5245 65.988 79.274 65.871 78.8983 65.988Z" fill="white"/>
<path d="M47.7147 61.074C47.7147 61.074 49.8437 56.862 45.8362 53.82C43.8324 52.299 41.0772 51.831 38.0716 52.299C36.4435 52.533 34.8155 53.118 33.8136 53.82C32.6865 54.522 32.3108 55.341 32.3108 55.809C32.1855 56.394 32.5612 56.862 32.6865 56.979C32.8117 57.096 33.1874 57.33 33.9388 57.213C34.3145 57.096 34.8155 56.979 35.3164 56.862C34.3145 58.149 31.0584 62.478 28.5537 69.849C26.8004 75.231 26.1742 78.39 27.0509 79.56C27.1761 79.794 27.4266 80.028 27.8023 80.028C27.9275 80.028 28.0528 80.028 28.0528 80.028C29.6808 79.794 31.3089 75.933 33.4379 70.551C33.8136 69.732 34.0641 69.03 34.4398 68.211C38.0716 59.436 38.3221 57.33 38.0716 56.628C39.1987 56.628 43.2062 56.745 43.7072 59.67C44.0829 62.01 41.453 64.233 38.6978 65.403C37.9464 65.754 37.3202 65.988 36.694 66.105C36.1931 66.222 35.6921 66.456 35.4416 66.573C35.0659 66.807 35.1912 67.041 35.1912 67.041C35.3164 67.509 36.3183 67.743 38.0716 67.509H38.1968C39.4492 67.041 45.3352 65.871 47.7147 61.074Z" fill="white"/>
<path d="M77.8964 75.9329C77.8964 75.2309 77.8964 74.7629 77.5207 74.5289C77.3955 74.4119 77.145 74.2949 76.8945 74.2949C76.7693 74.2949 76.7693 74.2949 76.644 74.2949C75.8926 74.4119 75.5169 75.1139 74.8908 76.0499C74.2646 76.9859 73.3879 78.1559 72.0103 79.4429C70.3823 80.8469 68.629 82.0169 68.0028 82.2509C68.5037 80.9639 68.629 79.3259 68.5037 78.3899C68.3785 77.5709 68.128 76.8689 67.5019 76.5179C66.8757 76.0499 66.1243 76.0499 65.4981 76.1669C64.7467 76.2839 64.1205 76.6349 63.87 76.8689C63.7448 76.9859 63.6196 77.2199 63.7448 77.3369C63.7448 77.5709 63.9953 77.6879 64.371 77.8049C64.9972 78.0389 64.9972 78.3899 64.7467 78.8579C64.7467 78.9749 64.7467 79.0919 64.6214 79.0919C64.4962 79.4429 64.371 79.9109 64.2457 80.2619C63.6196 81.7829 63.1186 83.4209 63.6196 84.8249C64.1205 85.9949 65.2476 86.4629 66.7505 86.2289C67.0009 86.2289 67.3766 86.1119 67.6271 85.9949C69.2552 85.4099 71.1337 84.0059 73.0122 81.5489C73.1375 83.6549 74.515 84.7079 75.1412 85.1759C75.6422 85.5269 76.1431 85.6439 76.5188 85.6439C76.7693 85.6439 77.0198 85.5269 77.0198 85.2929C77.145 85.0589 77.145 84.8249 76.8945 84.2399C76.5188 83.4209 77.0198 80.1449 77.2702 77.9219C77.7712 76.9859 77.8964 76.2839 77.8964 75.9329Z" fill="white"/>
<path d="M97.4332 70.2C97.0575 69.849 96.3061 69.966 93.6761 70.551C92.9247 70.668 92.0481 70.902 90.9209 71.136C90.6705 71.253 90.0443 71.37 89.4181 71.487C89.0424 71.604 88.6667 71.721 88.1658 71.721L88.291 71.487C88.7919 70.551 89.2929 69.615 89.4181 69.03C89.5433 68.328 89.5433 67.86 89.1676 67.509C88.9172 67.275 88.5415 67.158 88.1658 67.158C87.7901 67.275 87.4143 67.392 87.1639 67.743C86.7882 68.211 85.2853 69.849 83.6573 72.657C83.1563 72.774 81.5283 73.008 80.4012 72.891C80.1507 72.891 79.775 72.891 79.5245 72.891C79.0236 73.008 78.6479 73.242 78.3974 73.71C78.2722 73.944 78.2722 74.295 78.3974 74.646C78.5226 74.997 78.8983 75.348 79.3993 75.465C80.0255 75.699 81.0273 75.933 82.1545 75.816C80.5264 79.677 79.9002 83.304 80.2759 86.58C80.4012 87.165 80.5264 87.633 80.7769 87.75C80.9021 87.867 81.0273 87.867 81.1526 87.867C81.5283 87.75 81.904 87.282 82.1545 86.697C82.2797 86.112 84.7844 79.209 86.6629 74.997C90.42 73.827 93.3004 72.657 95.6799 71.721H95.8051C96.4313 71.487 97.0575 71.136 97.3079 71.019C97.4332 70.902 97.5584 70.785 97.5584 70.668C97.5584 70.434 97.5584 70.317 97.4332 70.2Z" fill="white"/>
<path d="M63.7449 79.2089C63.7449 79.0919 63.6196 78.9749 63.3691 78.9749C63.2439 78.8579 62.9934 78.9749 62.6177 79.0919C62.4925 79.0919 62.3673 79.2089 62.242 79.2089C61.9916 79.3259 61.4906 79.4429 60.9897 79.6769C61.3654 78.0389 61.7411 76.7519 61.9916 75.6989C62.6177 73.4759 62.8682 72.4229 62.4925 71.8379C62.3673 71.7209 62.1168 71.6039 61.8663 71.4869C61.7411 71.4869 61.7411 71.4869 61.6159 71.4869C59.9878 71.7209 57.6083 76.4009 56.1055 80.9639C55.9803 80.9639 55.855 80.9639 55.7298 81.0809C53.9765 81.4319 52.2232 81.8999 50.2194 82.2509C50.7204 80.9639 51.0961 79.6769 51.7223 78.2729C52.2232 76.8689 53.2251 74.2949 53.0998 73.0079C52.9746 72.1889 52.5989 72.0719 52.3484 72.0719H52.2232C50.4699 72.3059 47.2138 77.9219 44.9595 83.1869H44.7091H43.8324C42.5801 83.4209 41.4529 83.6549 40.7015 83.8889C39.5744 84.2399 38.9482 84.8249 38.9482 85.4099C38.9482 85.9949 39.3239 86.4629 40.2006 86.8139C40.952 87.1649 41.8287 87.2819 42.9558 87.2819C42.0791 89.7389 40.952 94.0679 41.9539 95.7059C42.2044 96.0569 42.5801 96.2909 43.081 96.4079C43.3315 96.4079 43.7072 96.4079 43.9577 96.4079C45.8362 96.0569 46.7128 93.4829 47.2138 91.6109C47.5895 89.9729 48.0904 88.2179 48.5914 86.4629C50.5951 85.9949 52.7241 85.1759 54.8531 84.3569C54.227 86.8139 53.6008 90.6749 55.4793 91.0259C55.855 91.1429 56.1055 91.1429 56.4812 91.1429C57.2326 91.0259 57.984 90.4409 58.485 89.6219C59.1111 88.4519 59.4868 86.8139 59.7373 85.2929C59.9878 84.1229 60.113 82.9529 60.3635 81.8999C61.7411 81.1979 62.743 80.4959 63.2439 80.0279C63.6196 79.7939 63.7449 79.4429 63.7449 79.2089Z" fill="white"/>
<path d="M94.1771 54.99C93.4256 56.511 93.3004 56.862 93.1752 57.447C92.4238 57.915 89.9191 59.085 88.9172 59.202C88.6667 59.202 88.5415 59.202 88.5415 59.202V59.085C89.6686 56.043 93.1752 55.107 94.1771 54.99ZM98.6855 58.266C98.3098 58.266 97.9341 58.149 97.8089 57.798C97.3079 57.213 97.5584 56.628 98.0594 55.458C98.1846 54.99 98.4351 54.405 98.6855 53.703C98.936 52.884 98.6855 52.416 98.5603 52.182C98.3098 51.831 97.9341 51.714 97.8089 51.714C97.4332 51.714 96.9322 51.948 96.807 52.065C96.1808 51.948 95.4294 51.948 94.678 51.948C91.0462 52.182 86.6629 54.756 84.7844 57.681C83.9077 59.085 83.6573 60.489 84.1582 61.542C84.1582 61.659 84.2835 61.659 84.2835 61.776C84.1582 61.776 84.1582 61.776 84.1582 61.776C83.532 62.01 82.9059 62.244 82.1545 62.244C80.9021 62.361 79.3993 62.127 78.1469 62.01C77.5207 61.893 76.8946 61.893 76.3936 61.776C77.3955 60.84 80.6516 57.915 81.904 56.628C82.5302 56.043 83.4068 55.107 83.532 54.873C84.1582 54.054 84.1582 53.235 83.6573 52.65C83.2816 52.182 82.4049 51.714 80.4012 51.831C80.0254 51.831 79.775 51.948 79.3993 51.948C76.1432 52.416 74.0142 52.767 73.1375 52.884C72.7618 52.884 72.5113 52.884 72.2609 52.884C72.1356 52.884 71.8852 52.767 71.7599 52.767H71.6347C71.259 52.767 70.8833 53.001 70.6328 53.352C70.3823 53.703 70.2571 54.288 70.5076 54.873C70.8833 55.692 72.0104 56.043 72.887 56.16C73.388 56.16 73.8889 56.16 74.6403 56.16C76.0179 56.043 77.5207 55.809 78.3974 55.692C77.646 56.394 76.6441 57.096 75.6422 57.915C73.8889 59.202 72.1356 60.489 70.8833 61.776C69.5057 63.18 68.8795 64.584 69.2552 65.286C69.5057 65.637 69.8814 65.754 70.5076 65.637C71.1337 65.52 71.8851 65.403 72.7618 65.286C73.8889 65.169 75.016 65.169 76.1432 65.169C77.2703 65.169 78.3974 65.169 79.5245 65.052C80.9021 64.935 82.0292 64.701 83.0311 64.35C84.2835 63.882 85.1601 63.18 85.2853 62.712C85.5358 62.829 85.661 62.829 85.9115 62.946C86.4125 63.063 86.9134 63.063 87.5396 63.063C89.9191 62.829 92.0481 61.425 93.4256 60.489C93.6761 60.255 93.9266 60.138 94.1771 60.021C94.678 60.723 96.0556 61.191 97.6836 61.074C98.5603 60.957 100.439 60.606 101.065 59.904C101.19 59.787 101.315 59.553 101.315 59.436C100.94 58.968 100.564 58.5 98.6855 58.266Z" fill="white"/>
</g>
<defs>
<clipPath id="clip0_6_30">
<rect width="133" height="117" fill="white"/>
</clipPath>
</defs>
</svg>
